<svg xmlns="http://www.w3.org/2000/svg" width="35.745" height="31.58" viewBox="0 0 35.745 31.58">
  <g id="diamond-svgrepo-com" transform="translate(-1.994 -3)">
    <path id="Path_27" data-name="Path 27" d="M6.389,7.2c1.1-1.566,1.644-2.349,2.458-2.773S10.616,4,12.528,4H27.2c1.912,0,2.868,0,3.681.423S32.247,5.63,33.344,7.2l1.119,1.6C36,11,36.775,12.1,36.738,13.339s-.871,2.3-2.54,4.4L24.315,30.227h0c-1.374,1.735-2.061,2.6-2.862,2.978a3.746,3.746,0,0,1-3.174,0c-.8-.375-1.488-1.242-2.862-2.978h0L5.534,17.743c-1.669-2.108-2.5-3.162-2.54-4.4S3.728,11,5.27,8.794Z" transform="translate(0 0)" fill="none" stroke="#fff" stroke-linejoin="round" stroke-width="2"/>
    <path id="Path_28" data-name="Path 28" d="M9.614,7.5,8.677,8.905h0a2.261,2.261,0,0,0,.144,2.7l3.6,4.323" transform="translate(4.632 3.057)" fill="none" stroke="#fff" stroke-linecap="round" stroke-linejoin="round" stroke-width="2"/>
  </g>
</svg>
