<svg xmlns="http://www.w3.org/2000/svg" width="30.933" height="33.963" viewBox="0 0 30.933 33.963">
  <path id="fingerprint-alt-svgrepo-com_1_" data-name="fingerprint-alt-svgrepo-com (1)" d="M20.226,34.586A14.463,14.463,0,0,1,13.4,22.3a4.823,4.823,0,1,1,9.645,0,4.823,4.823,0,1,0,9.645,0,14.466,14.466,0,1,0-28.933,0,24.2,24.2,0,0,0,.566,5.189m7.738,5.87A19.2,19.2,0,0,1,8.576,22.3a9.644,9.644,0,1,1,19.287,0m.523,9.623c-.174.01-.344.026-.519.026A9.646,9.646,0,0,1,18.223,22.3M31.686,9.1a17.908,17.908,0,0,0-26.929,0" transform="translate(-2.758 -2)" fill="none" stroke="#fff" stroke-linecap="round" stroke-linejoin="round" stroke-width="2"/>
</svg>
