<svg xmlns="http://www.w3.org/2000/svg" width="34.442" height="34.442" viewBox="0 0 34.442 34.442">
  <g id="bomb" transform="translate(-1 -1)">
    <path id="Path_44" data-name="Path 44" d="M8.083,8.628a12.16,12.16,0,1,1-4.455,4.455" transform="translate(0 3.11)" fill="none" stroke="#fff" stroke-linecap="round" stroke-width="2"/>
    <path id="Path_45" data-name="Path 45" d="M18.244,7,15,10.244" transform="translate(8.087 3.11)" fill="none" stroke="#fff" stroke-linecap="round" stroke-width="2"/>
    <path id="Path_46" data-name="Path 46" d="M19.836,2.573a.9.9,0,0,1,1.683,0l1.062,2.691a.9.9,0,0,0,.51.51l2.691,1.061a.9.9,0,0,1,0,1.683L23.09,9.581a.9.9,0,0,0-.51.51l-1.062,2.691a.9.9,0,0,1-1.683,0L18.774,10.09a.9.9,0,0,0-.51-.51L15.573,8.519a.9.9,0,0,1,0-1.683l2.691-1.061a.9.9,0,0,0,.51-.51Z" transform="translate(8.087 0)" fill="none" stroke="#fff" stroke-width="2"/>
  </g>
</svg>
