<svg xmlns="http://www.w3.org/2000/svg" width="29.422" height="32.965" viewBox="0 0 29.422 32.965">
  <path id="letter-japanese-a-svgrepo-com" d="M23.357,13.112a7.931,7.931,0,0,1-.214,2.866m0,0c-1.2,5.229-6.4,13.351-14.707,14.815,0,0-2.272.486-3.522-.791-2.125-2.17-1.9-7.911,15.973-13.518A14.086,14.086,0,0,1,23.144,15.978Zm0,0c7.167-1,14.391,3.643-.815,17.357M9.951,8.056A99.458,99.458,0,0,0,23.44,6.371M16.691,3c-1.737,6.741-3.422,12.639,0,26.964" transform="translate(-2.877 -1.782)" fill="none" stroke="#fff" stroke-linecap="round" stroke-linejoin="round" stroke-width="2"/>
</svg>
