<svg xmlns="http://www.w3.org/2000/svg" width="32.868" height="32.867" viewBox="0 0 32.868 32.867">
  <g id="Communication_Paper_Plane" data-name="Communication / Paper_Plane" transform="translate(-1.662 -2.577)">
    <path id="Vector" d="M15.928,21.178l8.417-8.417m8.61-5.137-7.1,23.09c-.637,2.069-.955,3.1-1.5,3.448a1.735,1.735,0,0,1-1.585.132c-.6-.248-1.084-1.217-2.052-3.155l-4.5-9a3.655,3.655,0,0,0-.333-.594,1.74,1.74,0,0,0-.314-.316,3.536,3.536,0,0,0-.574-.322L5.966,16.4c-1.937-.968-2.906-1.453-3.154-2.051a1.736,1.736,0,0,1,.131-1.585c.343-.549,1.378-.868,3.448-1.505l23.09-7.1c1.627-.5,2.441-.751,2.991-.549A1.736,1.736,0,0,1,33.5,4.634c.2.549-.049,1.363-.549,2.989Z" transform="translate(0 0)" fill="none" stroke="#fff" stroke-linecap="round" stroke-linejoin="round" stroke-width="2"/>
  </g>
</svg>
